<svg viewBox="0 0 20 20" fill="none" xmlns="http://www.w3.org/2000/svg">
<path d="M4.16665 10.8334C4.62688 10.8334 4.99998 10.4603 4.99998 10C4.99998 9.53978 4.62688 9.16669 4.16665 9.16669C3.70641 9.16669 3.33331 9.53978 3.33331 10C3.33331 10.4603 3.70641 10.8334 4.16665 10.8334Z" stroke="currentColor" stroke-width="1.5" stroke-linecap="round" stroke-linejoin="round"/>
<path d="M9.99998 10.8334C10.4602 10.8334 10.8333 10.4603 10.8333 10C10.8333 9.53978 10.4602 9.16669 9.99998 9.16669C9.53974 9.16669 9.16665 9.53978 9.16665 10C9.16665 10.4603 9.53974 10.8334 9.99998 10.8334Z" stroke="currentColor" stroke-width="1.5" stroke-linecap="round" stroke-linejoin="round"/>
<path d="M15.8333 10.8334C16.2935 10.8334 16.6666 10.4603 16.6666 10C16.6666 9.53978 16.2935 9.16669 15.8333 9.16669C15.3731 9.16669 15 9.53978 15 10C15 10.4603 15.3731 10.8334 15.8333 10.8334Z" stroke="currentColor" stroke-width="1.5" stroke-linecap="round" stroke-linejoin="round"/>
</svg>
