<svg viewBox="0 0 20 20" fill="none" xmlns="http://www.w3.org/2000/svg">
<path fill-rule="evenodd" clip-rule="evenodd" d="M12.0344 8.43393C12.0344 10.4225 10.4224 12.0345 8.43387 12.0345C6.44534 12.0345 4.83331 10.4225 4.83331 8.43393C4.83331 6.4454 6.44534 4.83337 8.43387 4.83337C10.4224 4.83337 12.0344 6.4454 12.0344 8.43393ZM11.7981 13.2795C11.4633 12.9447 10.9432 12.9009 10.5108 13.0939C9.8764 13.377 9.17352 13.5345 8.43387 13.5345C5.61691 13.5345 3.33331 11.2509 3.33331 8.43393C3.33331 5.61697 5.61691 3.33337 8.43387 3.33337C11.2508 3.33337 13.5344 5.61697 13.5344 8.43393C13.5344 9.35131 13.2922 10.2121 12.8683 10.9559C12.6118 11.406 12.6273 11.9873 12.9936 12.3537L16.4572 15.8173C16.7501 16.1102 16.7501 16.5851 16.4572 16.878C16.1644 17.1708 15.6895 17.1708 15.3966 16.878L11.7981 13.2795Z" fill="currentColor"/>
</svg>
