<svg viewBox="0 0 20 20" fill="none" xmlns="http://www.w3.org/2000/svg">
<g clip-path="url(#clip0_543_3739)">
<path d="M3.33331 5.83337H16.6666" stroke="currentColor" stroke-width="1.3" stroke-linecap="round" stroke-linejoin="round"/>
<path d="M8.33331 9.16663V14.1666" stroke="currentColor" stroke-width="1.3" stroke-linecap="round" stroke-linejoin="round"/>
<path d="M11.6667 9.16663V14.1666" stroke="currentColor" stroke-width="1.3" stroke-linecap="round" stroke-linejoin="round"/>
<path d="M4.16669 5.83337L5.00002 15.8334C5.00002 16.2754 5.17562 16.6993 5.48818 17.0119C5.80074 17.3244 6.22466 17.5 6.66669 17.5H13.3334C13.7754 17.5 14.1993 17.3244 14.5119 17.0119C14.8244 16.6993 15 16.2754 15 15.8334L15.8334 5.83337" stroke="currentColor" stroke-width="1.3" stroke-linecap="round" stroke-linejoin="round"/>
<path d="M7.5 5.83333V3.33333C7.5 3.11232 7.5878 2.90036 7.74408 2.74408C7.90036 2.5878 8.11232 2.5 8.33333 2.5H11.6667C11.8877 2.5 12.0996 2.5878 12.2559 2.74408C12.4122 2.90036 12.5 3.11232 12.5 3.33333V5.83333" stroke="currentColor" stroke-width="1.3" stroke-linecap="round" stroke-linejoin="round"/>
</g>
<defs>
<clipPath id="clip0_543_3739">
<rect width="20" height="20" fill="white"/>
</clipPath>
</defs>
</svg>
