<svg viewBox="0 0 20 21" fill="none" xmlns="http://www.w3.org/2000/svg">
<g clip-path="url(#clip0_42_3903)">
<path d="M7.49996 9.39787C9.34091 9.39787 10.8333 7.90548 10.8333 6.06453C10.8333 4.22359 9.34091 2.7312 7.49996 2.7312C5.65901 2.7312 4.16663 4.22359 4.16663 6.06453C4.16663 7.90548 5.65901 9.39787 7.49996 9.39787Z" stroke="currentColor" stroke-width="1.2" stroke-linecap="round" stroke-linejoin="round"/>
<path d="M2.5 17.7312V16.0645C2.5 15.1805 2.85119 14.3326 3.47631 13.7075C4.10143 13.0824 4.94928 12.7312 5.83333 12.7312H9.16667C10.0507 12.7312 10.8986 13.0824 11.5237 13.7075C12.1488 14.3326 12.5 15.1805 12.5 16.0645V17.7312" stroke="currentColor" stroke-width="1.2" stroke-linecap="round" stroke-linejoin="round"/>
<path d="M13.3334 2.83954C14.0504 3.02312 14.6859 3.44012 15.1397 4.0248C15.5936 4.60947 15.8399 5.32856 15.8399 6.06871C15.8399 6.80885 15.5936 7.52794 15.1397 8.11261C14.6859 8.69729 14.0504 9.11429 13.3334 9.29787" stroke="currentColor" stroke-width="1.2" stroke-linecap="round" stroke-linejoin="round"/>
<path d="M17.5 17.7312V16.0645C17.4958 15.3288 17.2483 14.6152 16.7961 14.0349C16.3439 13.4545 15.7124 13.0401 15 12.8562" stroke="currentColor" stroke-width="1.2" stroke-linecap="round" stroke-linejoin="round"/>
</g>
<defs>
<clipPath id="clip0_42_3903">
<rect width="20" height="20" fill="white" transform="translate(0 0.231201)"/>
</clipPath>
</defs>
</svg>
